{"title":"Come Out and Play (2012) WEBRip Xvid VoXHD","uid":8284449,"size":1341355811,"categoryP":"video","categoryS":"movies","magnet":"?xt=urn:btih:d5fa246dc4f882a80c24a90f39927d3f0335014f&amp;dn=Come+Out+and+Play+%282012%29+WEBRip+Xvid+VoXHD&amp;tr=udp%3A%2F%2Ftracker.openbittorrent.com%3A80&amp;tr=udp%3A%2F%2Fopen.demonii.com%3A1337&amp;tr=udp%3A%2F%2Ftracker.coppersurfer.tk%3A6969&amp;tr=udp%3A%2F%2Fexodus.desync.com%3A6969","seeders":3,"leechers":0,"uploader":"juggs99","files":2,"time":1363912532,"description":" &lt;a href=&quot;http://www.imdb.com/title/tt2341664/&quot; rel=&quot;nofollow&quot; target=&quot;_NEW&quot;&gt;http://www.imdb.com/title/tt2341664/&lt;/a&gt;\n\nQuote:\nVideo\nID                                       : 0\nFormat                                   : MPEG-4 Visual\nFormat profile                           : Advanced Simple@L5\nFormat settings, BVOP                    : 2\nFormat settings, QPel                    : No\nFormat settings, GMC                     : No warppoints\nFormat settings, Matrix                  : Default (MPEG)\nCodec ID                                 : XVID\nCodec ID/Hint                            : XviD\nDuration                                 : 1h 26mn\nBit rate                                 : 1 862 Kbps\nWidth                                    : 720 pixels\nHeight                                   : 304 pixels\nDisplay aspect ratio                     : 2.35:1\nFrame rate                               : 23.976 fps\nColor space                              : YUV\nChroma subsampling                       : 4:2:0\nBit depth                                : 8 bits\nScan type                                : Progressive\nCompression mode                         : Lossy\nBits/(Pixel*Frame)                       : 0.355\nStream size                              : 1.13 GiB (90%)\nWriting library                          : XviD 1.2.1 (UTC 2008-12-04)\n\nAudio\nID                                       : 1\nFormat                                   : AC-3\nFormat/Info                              : Audio Coding 3\nMode extension                           : CM (complete main)\nFormat settings, Endianness              : Big\nCodec ID                                 : 2000\nDuration                                 : 1h 26mn\nBit rate mode                            : Constant\nBit rate                                 : 192 Kbps\nChannel(s)                               : 6 channels\nChannel positions                        : Front: L C R, Side: L R, LFE\nSampling rate                            : 48.0 KHz\nBit depth                                : 16 bits\nCompression mode                         : Lossy\nStream size                              : 119 MiB (9%)\nAlignment                                : Aligned on interleaves\nInterleave, duration                     : 64 ms (1.53 video frames)\nInterleave, preload duration             : 192 ms\n\n &lt;a href=&quot;\nhttp://www.shotpix.com/images/98400488008552832812.png&quot; rel=&quot;nofollow&quot; target=&quot;_NEW&quot;&gt;\nhttp://www.shotpix.com/images/98400488008552832812.png&lt;/a&gt; &lt;a href=&quot;\nhttp://www.shotpix.com/images/93215025787143031987.png&quot; rel=&quot;nofollow&quot; target=&quot;_NEW&quot;&gt;\nhttp://www.shotpix.com/images/93215025787143031987.png&lt;/a&gt; &lt;a href=&quot;\nhttp://www.shotpix.com/images/89855707633586124196.png&quot; rel=&quot;nofollow&quot; target=&quot;_NEW&quot;&gt;\nhttp://www.shotpix.com/images/89855707633586124196.png&lt;/a&gt;","torrent":{"xt":"urn:btih:d5fa246dc4f882a80c24a90f39927d3f0335014f","amp;dn":"Come+Out+and+Play+%282012%29+WEBRip+Xvid+VoXHD","amp;tr":["udp%3A%2F%2Ftracker.openbittorrent.com%3A80","udp%3A%2F%2Fopen.demonii.com%3A1337","udp%3A%2F%2Ftracker.coppersurfer.tk%3A6969","udp%3A%2F%2Fexodus.desync.com%3A6969"],"infoHash":"d5fa246dc4f882a80c24a90f39927d3f0335014f","infoHashBuffer":{"type":"Buffer","data":[213,250,36,109,196,248,130,168,12,36,169,15,57,146,125,63,3,53,1,79]},"announce":[],"urlList":[]}}